<svg width="100" height="99" viewBox="0 0 100 99" fill="none" xmlns="http://www.w3.org/2000/svg">
<g id="css3-original 1">
<path id="Vector" d="M14.6984 88.267L6.84375 1.04565H93.1562L85.2938 88.2538L49.9477 97.9551L14.6984 88.267Z" fill="#1572B6"/>
<path id="Vector_2" d="M50.0008 90.5401L78.5625 82.7006L85.282 8.17676H50.0008V90.5401Z" fill="#33A9DC"/>
<path id="Vector_3" d="M50.0008 39.7771H64.2992L65.2867 28.8229H50.0008V18.1255H77.0961L76.8367 20.9957L74.1805 50.4745H50.0008V39.7771Z" fill="white"/>
<path id="Vector_4" d="M50.0648 67.5591L50.0172 67.573L37.9836 64.3563L37.2141 55.8245H26.3688L27.882 72.6212L50.0156 78.7027L50.0648 78.6888V67.5591Z" fill="#EBEBEB"/>
<path id="Vector_5" d="M63.3805 50.022L62.0789 64.3476L50.0273 67.5682V78.6979L72.1789 72.6203L72.3414 70.8127L74.2211 50.022H63.3805Z" fill="white"/>
<path id="Vector_6" d="M50.0375 18.1255V28.8229H23.9375L23.7211 26.4191L23.2289 20.9957L22.9703 18.1255H50.0375ZM50.0008 39.7786V50.4761H38.1188L37.9023 48.0722L37.4094 42.6489L37.1516 39.7786H50.0008Z" fill="#EBEBEB"/>
</g>
</svg>
