<svg width="37" height="55" viewBox="0 0 37 55" fill="none" xmlns="http://www.w3.org/2000/svg">
<g id="Group">
<g id="5">
<g id="path1_fill-link">
<path id="path1_fill" d="M9.4375 54.7437C14.4426 54.7437 18.5 50.6779 18.5 45.6625V36.5813H9.4375C4.43242 36.5813 0.375 40.6471 0.375 45.6625C0.375 50.6779 4.43242 54.7437 9.4375 54.7437Z" fill="#0ACF83"/>
</g>
</g>
<g id="4">
<g id="path2_fill-link">
<path id="path2_fill" d="M0.375 27.5001C0.375 22.4847 4.43242 18.4189 9.4375 18.4189H18.5V36.5813H9.4375C4.43242 36.5813 0.375 32.5156 0.375 27.5001Z" fill="#A259FF"/>
</g>
</g>
<g id="3">
<g id="path2_fill-link_2">
<path id="path2_fill_2" d="M0.744896 9.13344C0.744896 4.11803 4.80231 0.0522461 9.8074 0.0522461H18.8699V18.2146H9.8074C4.80231 18.2146 0.744896 14.1489 0.744896 9.13344Z" fill="#F24E1E"/>
</g>
</g>
<g id="2">
<g id="path3_fill-link">
<path id="path3_fill" d="M18.5 0.256592H27.5625C32.5676 0.256592 36.625 4.32238 36.625 9.33779C36.625 14.3532 32.5676 18.419 27.5625 18.419H18.5V0.256592Z" fill="#FF7262"/>
</g>
</g>
<g id="1">
<g id="path4_fill-link">
<path id="path4_fill" d="M36.625 27.5001C36.625 32.5156 32.5676 36.5813 27.5625 36.5813C22.5574 36.5813 18.5 32.5156 18.5 27.5001C18.5 22.4847 22.5574 18.4189 27.5625 18.4189C32.5676 18.4189 36.625 22.4847 36.625 27.5001Z" fill="#1ABCFE"/>
</g>
</g>
</g>
</svg>
