<svg width="36" height="25" viewBox="0 0 36 25" fill="none" xmlns="http://www.w3.org/2000/svg">
<g id="github (1) 2">
<path id="Vector" d="M17.7246 2.08334C15.7849 2.08334 13.8642 2.35278 12.0722 2.87626C10.2801 3.39975 8.65185 4.16704 7.28028 5.13431C4.51027 7.08782 2.9541 9.73734 2.9541 12.5C2.9541 17.1042 7.19323 21.0104 13.0571 22.3958C13.7956 22.4792 14.032 22.1563 14.032 21.875C14.032 21.6354 14.032 20.9792 14.032 20.1146C9.94055 20.7396 9.06909 18.7188 9.06909 18.7188C8.38964 17.5104 7.42956 17.1875 7.42956 17.1875C6.08545 16.5417 7.53295 16.5625 7.53295 16.5625C9.01 16.6354 9.79284 17.6354 9.79284 17.6354C11.0779 19.2188 13.2491 18.75 14.0911 18.5C14.224 17.8229 14.608 17.3646 15.0216 17.1042C11.7425 16.8438 8.30102 15.9479 8.30102 11.9792C8.30102 10.8229 8.8623 9.89584 9.82238 9.15626C9.67468 8.89584 9.15771 7.81251 9.97009 6.40626C9.97009 6.40626 11.2108 6.12501 14.032 7.46876C15.1988 7.23959 16.4691 7.12501 17.7246 7.12501C18.9801 7.12501 20.2503 7.23959 21.4172 7.46876C24.2384 6.12501 25.4791 6.40626 25.4791 6.40626C26.2915 7.81251 25.7745 8.89584 25.6268 9.15626C26.5869 9.89584 27.1482 10.8229 27.1482 11.9792C27.1482 15.9583 23.6919 16.8333 20.3981 17.0938C20.9298 17.4167 21.4172 18.0521 21.4172 19.0208C21.4172 20.4167 21.4172 21.5417 21.4172 21.875C21.4172 22.1563 21.6535 22.4896 22.4068 22.3958C28.2707 21 32.4951 17.1042 32.4951 12.5C32.4951 11.1321 32.113 9.77753 31.3708 8.51372C30.6285 7.24991 29.5405 6.10159 28.1689 5.13431C26.7973 4.16704 25.1691 3.39975 23.377 2.87626C21.585 2.35278 19.6643 2.08334 17.7246 2.08334Z" fill="white" fill-opacity="0.9"/>
</g>
</svg>
