<svg width="99" height="99" viewBox="0 0 99 99" fill="none" xmlns="http://www.w3.org/2000/svg">
<g id="html5-original 1">
<path id="Vector" d="M14.7239 88.076L6.98569 1.28467H92.0143L84.2676 88.0628L49.4482 97.7153L14.7239 88.076Z" fill="#E44D26"/>
<path id="Vector_2" d="M49.5 90.3374L77.6361 82.5365L84.256 8.38086H49.5V90.3374Z" fill="#F16529"/>
<path id="Vector_3" d="M49.5 40.5708H35.4141L34.4412 29.6699H49.5V19.0259H22.8079L23.0631 21.8814L25.6789 51.2156H49.5V40.5708ZM49.5 68.2157L49.4528 68.2289L37.5983 65.0268L36.8411 56.5384H26.1546L27.6457 73.2516L49.4513 79.3045L49.5 79.2914V68.2157Z" fill="#EBEBEB"/>
<path id="Vector_4" d="M49.4629 40.5708V51.2156H62.5703L61.3351 65.0207L49.4629 68.225V79.2999L71.2854 73.2516L71.4455 71.4533L73.9468 43.4294L74.2059 40.5708H71.338H49.4629ZM49.4629 19.0259V29.6699H75.175L75.3885 27.2785L75.8742 21.8814L76.1287 19.0259H49.4629Z" fill="white"/>
</g>
</svg>
