<svg width="99" height="99" viewBox="0 0 99 99" fill="none" xmlns="http://www.w3.org/2000/svg">
<g id="javascript-original 1">
<path id="Vector" d="M1.08899 1.08911H97.911V97.9119H1.08899V1.08911Z" fill="#F0DB4F"/>
<path id="Vector_2" d="M89.9871 74.8191C89.2779 70.402 86.3976 66.6919 77.8658 63.2323C74.902 61.8703 71.5979 60.8949 70.6133 58.6489C70.2637 57.3418 70.2173 56.6055 70.4385 55.8142C71.0735 53.2464 74.1386 52.4459 76.568 53.1822C78.1327 53.7066 79.6138 54.9124 80.5071 56.8359C84.6852 54.1305 84.6767 54.1483 87.5941 52.2889C86.526 50.633 85.956 49.8688 85.2568 49.1604C82.7439 46.3536 79.3199 44.908 73.844 45.0186L70.9915 45.3875C68.2582 46.0782 65.6533 47.5129 64.1257 49.4365C59.5423 54.6371 60.8494 63.7389 66.4267 67.4846C71.9212 71.6086 79.9928 72.5468 81.0238 76.4031C82.0269 81.1242 77.5541 82.6525 73.1084 82.1096C69.8321 81.4282 68.0099 79.763 66.04 76.7349C62.4141 78.8333 62.4141 78.8333 58.6861 80.9772C59.5702 82.9101 60.4991 83.7848 61.981 85.4593C68.9945 92.5734 86.5453 92.2238 89.6932 81.456C89.8209 81.0863 90.6685 78.6206 89.9871 74.8191ZM53.7245 45.5886H44.6683L44.6312 69.0021C44.6312 73.9815 44.8888 78.5463 44.079 79.9455C42.7541 82.6974 39.3208 82.3563 37.7561 81.8226C36.1636 81.0399 35.3538 79.9269 34.4157 78.3538C34.1581 77.9021 33.9647 77.5525 33.8998 77.5254L26.5367 82.0345C27.761 84.5474 29.5647 86.7285 31.8749 88.1455C35.326 90.2167 39.9643 90.8517 44.8153 89.738C47.9725 88.8184 50.6965 86.9134 52.1227 84.0138C54.1847 80.2123 53.7423 75.6111 53.7238 70.5219C53.7702 62.2191 53.7245 53.9178 53.7245 45.5886Z" fill="#323330"/>
</g>
</svg>
