<svg width="36" height="25" viewBox="0 0 36 25" fill="none" xmlns="http://www.w3.org/2000/svg">
<g id="linkedin (1) 1">
<path id="Vector" d="M28.0639 3.125C28.8474 3.125 29.5988 3.34449 30.1528 3.73519C30.7068 4.12589 31.018 4.6558 31.018 5.20833V19.7917C31.018 20.3442 30.7068 20.8741 30.1528 21.2648C29.5988 21.6555 28.8474 21.875 28.0639 21.875H7.38525C6.60178 21.875 5.85039 21.6555 5.29639 21.2648C4.74239 20.8741 4.43115 20.3442 4.43115 19.7917V5.20833C4.43115 4.6558 4.74239 4.12589 5.29639 3.73519C5.85039 3.34449 6.60178 3.125 7.38525 3.125H28.0639ZM27.3254 19.2708V13.75C27.3254 12.8494 26.8181 11.9856 25.9151 11.3488C25.0121 10.7119 23.7873 10.3542 22.5102 10.3542C21.2547 10.3542 19.7925 10.8958 19.0835 11.7083V10.5521H14.9625V19.2708H19.0835V14.1354C19.0835 13.3333 19.9993 12.6771 21.1366 12.6771C21.685 12.6771 22.211 12.8307 22.5988 13.1042C22.9866 13.3777 23.2044 13.7486 23.2044 14.1354V19.2708H27.3254ZM10.1621 8.91667C10.8202 8.91667 11.4514 8.73229 11.9167 8.4041C12.3821 8.07591 12.6435 7.6308 12.6435 7.16667C12.6435 6.19792 11.5358 5.40625 10.1621 5.40625C9.50007 5.40625 8.86514 5.59172 8.39701 5.92186C7.92888 6.25201 7.66589 6.69978 7.66589 7.16667C7.66589 8.13542 8.78845 8.91667 10.1621 8.91667ZM12.2152 19.2708V10.5521H8.12378V19.2708H12.2152Z" fill="white" fill-opacity="0.9"/>
</g>
</svg>
