<svg width="99" height="99" viewBox="0 0 99 99" fill="none" xmlns="http://www.w3.org/2000/svg">
<g id="react-original 1">
<g id="Group">
<path id="Vector" d="M49.5 58.3172C54.3696 58.3172 58.3172 54.3696 58.3172 49.5C58.3172 44.6305 54.3696 40.6829 49.5 40.6829C44.6304 40.6829 40.6828 44.6305 40.6828 49.5C40.6828 54.3696 44.6304 58.3172 49.5 58.3172Z" fill="#61DAFB"/>
<path id="Vector_2" d="M82.9898 34.9594C81.2883 34.3407 79.5094 33.7219 77.6531 33.1805C78.1172 31.3243 78.5039 29.468 78.8133 27.6891C80.4375 17.4797 78.6586 10.2868 73.7086 7.50239C72.2391 6.65161 70.6148 6.26489 68.7586 6.26489C63.3445 6.26489 56.4609 10.2868 49.5 17.0157C42.5391 10.2868 35.6555 6.26489 30.2414 6.26489C28.3852 6.26489 26.7609 6.65161 25.2914 7.50239C20.3414 10.3641 18.5625 17.5571 20.1867 27.6891C20.4961 29.468 20.8828 31.3243 21.3469 33.1805C19.4906 33.7219 17.7117 34.2633 16.0102 34.9594C6.34219 38.6719 1.08281 43.7766 1.08281 49.5C1.08281 55.2235 6.41953 60.3282 16.0102 64.0407C17.7117 64.6594 19.4906 65.2782 21.3469 65.8196C20.8828 67.6758 20.4961 69.5321 20.1867 71.311C18.5625 81.5204 20.3414 88.7133 25.2914 91.4977C26.7609 92.3485 28.3852 92.7352 30.2414 92.7352C35.7328 92.7352 42.6164 88.7133 49.5 81.9844C56.4609 88.7133 63.3445 92.7352 68.7586 92.7352C70.6148 92.7352 72.2391 92.3485 73.7086 91.4977C78.6586 88.636 80.4375 81.443 78.8133 71.311C78.5039 69.5321 78.1172 67.6758 77.6531 65.8196C79.5094 65.2782 81.2883 64.7368 82.9898 64.0407C92.6578 60.3282 97.9172 55.2235 97.9172 49.5C97.9172 43.7766 92.6578 38.6719 82.9898 34.9594ZM71.543 11.3696C74.7141 13.2258 75.7969 18.9493 74.482 27.0704C74.25 28.6946 73.8633 30.3961 73.3992 32.175C69.3773 31.2469 65.1234 30.6282 60.6375 30.2415C58.0078 26.529 55.3008 23.2032 52.5938 20.1868C58.3172 14.5407 64.118 10.6735 68.8359 10.6735C69.8414 10.6735 70.7695 10.9055 71.543 11.3696ZM62.8805 57.2344C61.4883 59.7094 59.8641 62.1844 58.1625 64.6594C55.3008 64.8915 52.4391 64.9688 49.5 64.9688C46.4836 64.9688 43.6219 64.8915 40.8375 64.6594C39.1359 62.1844 37.5891 59.7094 36.1969 57.2344C34.7273 54.6821 33.3352 52.0524 32.0977 49.5C33.3352 46.9477 34.7273 44.318 36.1969 41.7657C37.5891 39.2907 39.2133 36.8157 40.9148 34.3407C43.7766 34.1086 46.6383 34.0313 49.5773 34.0313C52.5938 34.0313 55.4555 34.1086 58.2398 34.3407C59.9414 36.8157 61.4883 39.2907 62.8805 41.7657C64.35 44.318 65.7422 46.9477 66.9797 49.5C65.6648 52.0524 64.35 54.6047 62.8805 57.2344ZM69.3 54.6821C70.4602 57.3891 71.3883 60.0188 72.2391 62.6485C69.6094 63.2672 66.825 63.7313 63.8859 64.118C64.8141 62.6485 65.8195 61.1016 66.6703 59.4774C67.5984 57.8532 68.4492 56.229 69.3 54.6821ZM49.5 75.6422C47.6437 73.6313 45.8648 71.4657 44.1633 69.2227C45.9422 69.3 47.7211 69.3774 49.5 69.3774C51.2789 69.3774 53.0578 69.3 54.8367 69.2227C53.1352 71.4657 51.3563 73.6313 49.5 75.6422ZM35.1141 64.0407C32.175 63.654 29.3906 63.1899 26.7609 62.5711C27.6117 60.0188 28.5398 57.3118 29.7 54.6047C30.5508 56.1516 31.4016 57.7758 32.3297 59.3227C33.2578 61.0243 34.1859 62.4938 35.1141 64.0407ZM29.7 44.318C28.5398 41.611 27.6117 38.9813 26.7609 36.3516C29.3906 35.7329 32.175 35.2688 35.1141 34.8821C34.1859 36.3516 33.1805 37.8985 32.3297 39.5227C31.4016 41.1469 30.5508 42.7711 29.7 44.318ZM49.5 23.3579C51.3563 25.3688 53.1352 27.5344 54.8367 29.7774C53.0578 29.7 51.2789 29.6227 49.5 29.6227C47.7211 29.6227 45.9422 29.7 44.1633 29.7774C45.8648 27.5344 47.6437 25.3688 49.5 23.3579ZM66.6703 39.6L63.8859 34.9594C66.825 35.3461 69.6094 35.8102 72.2391 36.429C71.3883 38.9813 70.4602 41.6883 69.3 44.3954C68.4492 42.7711 67.5984 41.1469 66.6703 39.6ZM24.518 27.0704C23.2031 18.9493 24.2859 13.2258 27.457 11.3696C28.2305 10.9055 29.1586 10.6735 30.1641 10.6735C34.8047 10.6735 40.6055 14.4633 46.4062 20.1868C43.6992 23.1258 40.9922 26.529 38.3625 30.2415C33.8766 30.6282 29.6227 31.3243 25.6008 32.175C25.1367 30.3961 24.8273 28.6946 24.518 27.0704ZM5.41406 49.5C5.41406 45.8649 9.82266 41.9977 17.557 39.136C19.1039 38.5172 20.8055 37.9758 22.507 37.5118C23.7445 41.379 25.2914 45.4782 27.1477 49.5774C25.2914 53.6766 23.6672 57.6985 22.507 61.5657C11.8336 58.4719 5.41406 53.8313 5.41406 49.5ZM27.457 87.6305C24.2859 85.7743 23.2031 80.0508 24.518 71.9297C24.75 70.3055 25.1367 68.604 25.6008 66.8251C29.6227 67.7532 33.8766 68.3719 38.3625 68.7586C40.9922 72.4711 43.6992 75.7969 46.4062 78.8133C40.6828 84.4594 34.882 88.3266 30.1641 88.3266C29.1586 88.3266 28.2305 88.0946 27.457 87.6305ZM74.482 71.9297C75.7969 80.0508 74.7141 85.7743 71.543 87.6305C70.7695 88.0946 69.8414 88.3266 68.8359 88.3266C64.1953 88.3266 58.3945 84.5368 52.5938 78.8133C55.3008 75.8743 58.0078 72.4711 60.6375 68.7586C65.1234 68.3719 69.3773 67.6758 73.3992 66.8251C73.8633 68.604 74.1727 70.3055 74.482 71.9297ZM81.443 59.8641C79.8961 60.4829 78.1945 61.0243 76.493 61.4883C75.2555 57.6211 73.7086 53.5219 71.8523 49.4227C73.7086 45.3235 75.3328 41.3016 76.493 37.4344C87.1664 40.5282 93.5859 45.1688 93.5859 49.5C93.5859 53.1352 89.1 57.0024 81.443 59.8641Z" fill="#61DAFB"/>
</g>
</g>
</svg>
